<svg width="60" height="60" viewBox="0 0 60 60" fill="none" xmlns="http://www.w3.org/2000/svg">
<path d="M30 0C13.4575 0 0 13.4575 0 30C0 46.5425 13.4575 60 30 60C46.5425 60 60 46.5425 60 30C60 13.4575 46.5425 0 30 0ZM27.4225 5.1575H27.5V7.5H32.5V5.155C38.2374 5.71173 43.6031 8.24479 47.6792 12.3208C51.7552 16.3969 54.2883 21.7626 54.845 27.5H52.5V32.5H54.845C54.2883 38.2374 51.7552 43.6031 47.6792 47.6792C43.6031 51.7552 38.2374 54.2883 32.5 54.845V52.5H27.5V54.845C21.7626 54.2883 16.3969 51.7552 12.3208 47.6792C8.24479 43.6031 5.71173 38.2374 5.155 32.5H7.5V27.5H5.155C5.70877 21.7745 8.2307 16.4182 12.2911 12.3437C16.3514 8.26919 21.699 5.72866 27.4225 5.155V5.1575ZM46.25 13.75L25.39 25.39L13.75 46.25L34.61 34.61L46.25 13.75ZM30 26.25C30.9946 26.25 31.9484 26.6451 32.6516 27.3483C33.3549 28.0516 33.75 29.0054 33.75 30C33.75 30.9946 33.3549 31.9484 32.6516 32.6516C31.9484 33.3549 30.9946 33.75 30 33.75C29.0054 33.75 28.0516 33.3549 27.3483 32.6516C26.6451 31.9484 26.25 30.9946 26.25 30C26.25 29.0054 26.6451 28.0516 27.3483 27.3483C28.0516 26.6451 29.0054 26.25 30 26.25Z" fill="#53B175"/>
</svg>
