<svg width="456" height="455" viewBox="0 0 456 455" fill="none" xmlns="http://www.w3.org/2000/svg">
<path d="M228.157 452.416C352.334 452.416 453 351.75 453 227.571C453 103.392 352.334 2.72601 228.157 2.72601C103.979 2.72601 3.31366 103.392 3.31366 227.571C3.31366 351.75 103.979 452.416 228.157 452.416Z" stroke="black" stroke-width="5" stroke-linecap="round" stroke-linejoin="round"/>
<path d="M228.157 187.025V140.183" stroke="black" stroke-width="5" stroke-linecap="round" stroke-linejoin="round"/>
<path d="M228.157 314.96V268.117" stroke="black" stroke-width="5" stroke-linecap="round" stroke-linejoin="round"/>
<path d="M268.68 227.571H315.523" stroke="black" stroke-width="5" stroke-linecap="round" stroke-linejoin="round"/>
<path d="M140.79 227.571H187.632" stroke="black" stroke-width="5" stroke-linecap="round" stroke-linejoin="round"/>
<path d="M96.024 226.368C96.024 232.832 94.616 238.688 91.8 243.936C89.048 249.184 85.208 253.344 80.28 256.416C75.352 259.424 69.784 260.928 63.576 260.928C57.368 260.928 51.8 259.424 46.872 256.416C41.944 253.344 38.072 249.184 35.256 243.936C32.504 238.688 31.128 232.832 31.128 226.368C31.128 219.904 32.504 214.048 35.256 208.8C38.072 203.552 41.944 199.424 46.872 196.416C51.8 193.344 57.368 191.808 63.576 191.808C69.784 191.808 75.352 193.344 80.28 196.416C85.208 199.424 89.048 203.552 91.8 208.8C94.616 214.048 96.024 219.904 96.024 226.368ZM86.136 226.368C86.136 221.568 85.176 217.248 83.256 213.408C81.336 209.504 78.648 206.464 75.192 204.288C71.8 202.048 67.928 200.928 63.576 200.928C59.224 200.928 55.32 202.016 51.864 204.192C48.472 206.368 45.816 209.408 43.896 213.312C41.976 217.152 41.016 221.504 41.016 226.368C41.016 231.168 41.976 235.52 43.896 239.424C45.816 243.264 48.472 246.304 51.864 248.544C55.32 250.72 59.224 251.808 63.576 251.808C67.928 251.808 71.8 250.72 75.192 248.544C78.648 246.304 81.336 243.264 83.256 239.424C85.176 235.52 86.136 231.168 86.136 226.368Z" fill="black"/>
<path d="M401.984 251.136C403.328 251.136 404.416 251.584 405.248 252.48C406.144 253.376 406.592 254.432 406.592 255.648C406.592 256.928 406.144 257.984 405.248 258.816C404.416 259.584 403.328 259.968 401.984 259.968H368.576C367.296 259.968 366.208 259.52 365.312 258.624C364.416 257.728 363.968 256.64 363.968 255.36V197.376C363.968 196.096 364.416 195.008 365.312 194.112C366.208 193.216 367.296 192.768 368.576 192.768H401.984C403.328 192.768 404.416 193.184 405.248 194.016C406.144 194.848 406.592 195.936 406.592 197.28C406.592 198.56 406.144 199.616 405.248 200.448C404.416 201.216 403.328 201.6 401.984 201.6H373.472V221.184H397.664C399.008 221.184 400.096 221.6 400.928 222.432C401.824 223.264 402.272 224.32 402.272 225.6C402.272 226.944 401.824 228 400.928 228.768C400.096 229.536 399.008 229.92 397.664 229.92H373.472V251.136H401.984Z" fill="black"/>
<path d="M257.176 31.8C258.392 31.8 259.384 32.216 260.152 33.048C260.92 33.816 261.304 34.808 261.304 36.024V94.296C261.304 95.64 260.856 96.76 259.96 97.656C259.128 98.552 258.04 99 256.696 99C255.992 99 255.288 98.904 254.584 98.712C253.944 98.456 253.432 98.104 253.048 97.656L215.32 48.504V94.776C215.32 95.992 214.904 97.016 214.072 97.848C213.304 98.616 212.312 99 211.096 99C209.88 99 208.888 98.616 208.12 97.848C207.352 97.016 206.968 95.992 206.968 94.776V36.408C206.968 35.064 207.384 33.976 208.216 33.144C209.112 32.248 210.2 31.8 211.48 31.8C212.248 31.8 212.984 31.96 213.688 32.28C214.392 32.536 214.936 32.92 215.32 33.432L252.952 82.68V36.024C252.952 34.808 253.336 33.816 254.104 33.048C254.936 32.216 255.96 31.8 257.176 31.8Z" fill="#FF0000"/>
<path d="M230.32 411.898C225.648 411.898 221.52 411.258 217.936 409.978C214.352 408.634 210.928 406.49 207.664 403.546C206.32 402.394 205.648 401.082 205.648 399.61C205.648 398.458 206.096 397.434 206.992 396.538C207.888 395.578 208.944 395.098 210.16 395.098C211.248 395.098 212.176 395.45 212.944 396.154C215.504 398.522 218.128 400.282 220.816 401.434C223.568 402.522 226.672 403.066 230.128 403.066C234.16 403.066 237.552 402.138 240.304 400.282C243.12 398.426 244.528 396.09 244.528 393.274C244.464 389.946 243.056 387.386 240.304 385.594C237.616 383.738 233.488 382.202 227.92 380.986C221.328 379.642 216.24 377.434 212.656 374.362C209.136 371.29 207.376 367.034 207.376 361.594C207.376 357.818 208.368 354.522 210.352 351.706C212.336 348.826 215.088 346.618 218.608 345.082C222.128 343.546 226.096 342.778 230.512 342.778C234.48 342.778 238.224 343.418 241.744 344.698C245.264 345.978 248.112 347.674 250.288 349.786C251.76 351.066 252.496 352.442 252.496 353.914C252.496 355.066 252.048 356.09 251.152 356.986C250.32 357.882 249.296 358.33 248.08 358.33C247.184 358.33 246.448 358.074 245.872 357.562C244.208 355.898 241.904 354.49 238.96 353.338C236.016 352.186 233.2 351.61 230.512 351.61C226.224 351.61 222.8 352.506 220.24 354.298C217.744 356.026 216.496 358.33 216.496 361.21C216.496 364.346 217.744 366.746 220.24 368.41C222.8 370.074 226.576 371.482 231.568 372.634C236.56 373.722 240.624 375.002 243.76 376.474C246.96 377.946 249.424 379.994 251.152 382.618C252.88 385.242 253.744 388.666 253.744 392.89C253.744 396.602 252.688 399.898 250.576 402.778C248.528 405.658 245.712 407.898 242.128 409.498C238.544 411.098 234.608 411.898 230.32 411.898Z" fill="black"/>
</svg>
